<?xml version="1.0" encoding="UTF-8"?>
<svg xmlns="http://www.w3.org/2000/svg" xmlns:xlink="http://www.w3.org/1999/xlink" width="2688.51pt" height="620.89pt" viewBox="0 0 2688.51 620.89" version="1.1">
<defs>
<clipPath id="clip1">
  <path d="M 0 0 L 611 0 L 611 620.890625 L 0 620.890625 Z M 0 0 "/>
</clipPath>
<clipPath id="clip2">
  <path d="M 1630 0 L 2131 0 L 2131 620.890625 L 1630 620.890625 Z M 1630 0 "/>
</clipPath>
<clipPath id="clip3">
  <path d="M 2043 0 L 2688.511719 0 L 2688.511719 620.890625 L 2043 620.890625 Z M 2043 0 "/>
</clipPath>
<clipPath id="clip4">
  <path d="M 987 0 L 1633 0 L 1633 620.890625 L 987 620.890625 Z M 987 0 "/>
</clipPath>
<clipPath id="clip5">
  <path d="M 574 0 L 1075 0 L 1075 620.890625 L 574 620.890625 Z M 574 0 "/>
</clipPath>
</defs>
<g id="surface1">
<g clip-path="url(#clip1)" clip-rule="nonzero">
<path style=" stroke:none;fill-rule:nonzero;fill:rgb(0%,48.599243%,66.699219%);fill-opacity:1;" d="M 610.015625 0 L 558.226563 137.953125 L 189.679688 137.953125 C 161.074219 137.96875 137.902344 161.167969 137.914063 189.769531 C 137.929688 218.351563 161.097656 241.519531 189.679688 241.53125 L 420.335938 241.53125 C 525.09375 241.53125 610.015625 326.453125 610.015625 431.210938 C 610.015625 535.96875 525.09375 620.890625 420.335938 620.890625 L 0 620.890625 L 51.789063 482.804688 L 420.335938 482.804688 C 448.9375 482.804688 472.125 459.617188 472.125 431.015625 C 472.125 402.414063 448.9375 379.226563 420.335938 379.226563 L 189.679688 379.226563 C 84.957031 376.492188 2.28125 289.378906 5.019531 184.660156 C 7.65625 83.785156 88.804688 2.636719 189.679688 0 L 610.015625 0 "/>
</g>
<g clip-path="url(#clip2)" clip-rule="nonzero">
<path style=" stroke:none;fill-rule:nonzero;fill:rgb(0%,48.599243%,66.699219%);fill-opacity:1;" d="M 1682.511719 0 L 1630.78125 137.953125 L 1803.238281 137.953125 L 1803.238281 620.761719 L 1941.191406 620.761719 L 1941.191406 137.953125 L 2079.078125 137.953125 L 2130.808594 0 L 1682.511719 0 "/>
</g>
<g clip-path="url(#clip3)" clip-rule="nonzero">
<path style=" stroke:none;fill-rule:nonzero;fill:rgb(0%,48.599243%,66.699219%);fill-opacity:1;" d="M 2371.371094 241.402344 L 2550.621094 241.402344 L 2550.621094 187.738281 C 2549.410156 160.023438 2526.570313 138.1875 2498.828125 138.214844 L 2095.460938 138.214844 L 2147.25 0.261719 L 2498.828125 0.261719 C 2603.589844 0.261719 2688.511719 85.183594 2688.511719 189.9375 L 2688.511719 620.761719 L 2233.410156 620.761719 C 2128.660156 620.761719 2043.738281 535.839844 2043.738281 431.082031 C 2043.738281 326.324219 2128.660156 241.402344 2233.410156 241.402344 Z M 2498.828125 379.355469 L 2233.410156 379.355469 C 2204.808594 379.355469 2181.621094 402.542969 2181.621094 431.148438 C 2181.621094 459.75 2204.808594 482.9375 2233.410156 482.9375 L 2550.621094 482.9375 L 2550.621094 379.355469 L 2498.828125 379.355469 "/>
</g>
<g clip-path="url(#clip4)" clip-rule="nonzero">
<path style=" stroke:none;fill-rule:nonzero;fill:rgb(0%,48.599243%,66.699219%);fill-opacity:1;" d="M 1373.320313 241.402344 L 1494.121094 241.402344 L 1494.121094 187.738281 C 1492.910156 160.023438 1470.070313 138.1875 1442.328125 138.214844 L 1039.21875 138.214844 L 1091.011719 0.261719 L 1442.328125 0.261719 C 1547.089844 0.261719 1632.011719 85.183594 1632.011719 189.9375 L 1632.011719 620.761719 L 1177.171875 620.761719 C 1072.421875 620.761719 987.492188 535.839844 987.492188 431.082031 C 987.492188 326.324219 1072.421875 241.402344 1177.171875 241.402344 Z M 1442.328125 379.355469 L 1176.910156 379.355469 C 1148.308594 379.355469 1125.121094 402.542969 1125.121094 431.148438 C 1125.121094 459.75 1148.308594 482.9375 1176.910156 482.9375 L 1493.800781 482.9375 L 1493.800781 379.355469 L 1442.328125 379.355469 "/>
</g>
<g clip-path="url(#clip5)" clip-rule="nonzero">
<path style=" stroke:none;fill-rule:nonzero;fill:rgb(0%,48.599243%,66.699219%);fill-opacity:1;" d="M 626.199219 0 L 574.472656 137.953125 L 746.933594 137.953125 L 746.933594 620.761719 L 884.886719 620.761719 L 884.886719 137.953125 L 1022.839844 137.953125 L 1074.558594 0 L 626.199219 0 "/>
</g>
</g>
</svg>
